# xmcd
#
# Track frame offsets:
#	150
#	16606
#	34928
#	40460
#	51740
#	67151
#	81779
#	94335
#	106461
#	119059
#	128426
#	139740
#	151589
#	162748
#	173664
#	186430
#	205305
#	216826
#	228377
#	239396
#	252329
#	259780
#	264776
#	272175
#	283096
#	296699
#
# Disc length: 4095 seconds
#
# Revision: 1
# Processed by: cddbd v1.4PL0 Copyright (c) Steve Scherf et al.
# Submitted via: audiograbber 1.80
#
DISCID=8f0ffd1a
DTITLE=Blink 182 - Greatest Hits 2001
DYEAR=1900
DGENRE=
TTITLE0=Anthem
TTITLE1=Zi Days
TTITLE2=Points of view
TTITLE3=What´s my age again
TTITLE4=Mutt
TTITLE5=Aliens exist
TTITLE6=Dysintery Gary
TTITLE7=Cardussel
TTITLE8=Time
TTITLE9=Fentoosler
TTITLE10=Strings
TTITLE11=Reebok Commercial
TTITLE12=Toast and Bananas
TTITLE13=Dumpweed
TTITLE14=All the small things
TTITLE15=Adam´s song
TTITLE16=Romeo and Rebecca
TTITLE17=The girl next door
TTITLE18=Don´t
TTITLE19=Wendy clear
TTITLE20=T.V.
TTITLE21=Sometimes
TTITLE22=My pet Sally
TTITLE23=Don´t leave me
TTITLE24=Going away to College
TTITLE25=The Pitty song
EXTD=
EXTT0=
EXTT1=
EXTT2=
EXTT3=
EXTT4=
EXTT5=
EXTT6=
EXTT7=
EXTT8=
EXTT9=
EXTT10=
EXTT11=
EXTT12=
EXTT13=
EXTT14=
EXTT15=
EXTT16=
EXTT17=
EXTT18=
EXTT19=
EXTT20=
EXTT21=
EXTT22=
EXTT23=
EXTT24=
EXTT25=
PLAYORDER=
